<svg xmlns="http://www.w3.org/2000/svg" viewBox="0 0 235.31 62.5"><defs><style>.cls-1{fill:#1d1d1b;}</style></defs><g id="Capa_2" data-name="Capa 2"><g id="Capa_1-2" data-name="Capa 1"><path class="cls-1" d="M140.37,75.79V13.37h62A62.63,62.63,0,0,1,220.88,16a37.25,37.25,0,0,1,13.45,7q5.07,4.38,5.08,9.81t-5.41,10A40.78,40.78,0,0,1,219.65,50a67.18,67.18,0,0,1-19.59,2.71h-42v23.1Zm17.71-32.37H199.4A37.07,37.07,0,0,0,210.06,42,21.36,21.36,0,0,0,217.85,38c1.91-1.64,2.87-3.4,2.87-5.31s-1-3.61-3-5.12A23.47,23.47,0,0,0,209.4,24a45.79,45.79,0,0,0-11.31-1.33h-40ZM223.5,75.79,187.27,47.61,206,45.38l39.52,30.5Z" transform="translate(-10.17 -13.37)"/><path class="cls-1" d="M44.71,75.78,10.17,13.48H26.6L46.66,50.77a34.21,34.21,0,0,1,2.09,3.92l2,4.31c.64,1.46,1.25,2.84,1.81,4.14s1.06,2.5,1.53,3.56l-5.57-.09c1.11-2,2.18-4,3.2-5.83s2.07-3.64,3.13-5.34,2.12-3.27,3.14-4.76L75.77,24.25H90l17.27,26.34c1.11,1.61,2.23,3.3,3.34,5.08s2.16,3.53,3.14,5.25a48.09,48.09,0,0,1,2.43,4.89l-5.15.63c.46-1.19.93-2.3,1.39-3.34l1.4-3.12c.46-1,.95-2.07,1.46-3.11s1.07-2.11,1.67-3.21l1.88-3.42,21.73-36.76h16.15l-37.6,62.3H108.63L81.06,34.66l2.23.36L55.85,75.78Z" transform="translate(-10.17 -13.37)"/></g></g></svg>